<?xml version="1.0" standalone="no"?>
<!DOCTYPE svg PUBLIC "-//W3C//DTD SVG 20010904//EN"
 "http://www.w3.org/TR/2001/REC-SVG-20010904/DTD/svg10.dtd">
<svg version="1.0" xmlns="http://www.w3.org/2000/svg"
 width="299.000000pt" height="259.000000pt" viewBox="0 0 299.000000 259.000000"
 preserveAspectRatio="xMidYMid meet">

<g transform="translate(0.000000,259.000000) scale(0.100000,-0.100000)"
fill="#000000" stroke="none">
<path d="M2500 2030 c-121 -31 -317 -70 -350 -70 -17 0 -38 5 -48 11 -13 8
-58 1 -182 -26 -390 -85 -661 -214 -866 -412 -83 -79 -184 -220 -229 -318 -76
-167 -104 -388 -73 -588 10 -67 9 -82 -5 -112 -18 -39 -48 -51 -103 -42 -41 7
-43 11 43 -90 130 -151 333 -269 562 -325 117 -29 376 -32 499 -5 168 37 335
111 449 198 152 117 303 320 371 496 56 145 75 250 76 418 1 155 -3 174 -46
227 -21 27 -21 28 -5 90 29 110 40 209 41 369 1 141 -1 159 -18 178 -23 25
-20 25 -116 1z m-87 -253 c6 -16 -19 -364 -34 -467 -34 -237 -121 -478 -216
-600 -44 -55 -195 -202 -201 -195 -3 3 -10 -1 -16 -9 -21 -25 -150 -87 -236
-112 -71 -21 -106 -25 -215 -25 -155 0 -226 15 -360 76 -100 46 -100 39 4 153
51 56 100 102 109 102 9 0 52 -13 96 -29 83 -29 230 -74 279 -85 17 -4 25 -11
21 -18 -4 -6 7 0 25 13 30 22 43 38 19 23 -6 -4 -8 -3 -5 3 4 6 18 8 32 5 16
-3 25 0 25 8 0 7 -6 10 -14 7 -10 -4 -17 3 -21 22 -10 47 -43 66 -197 115 -81
25 -149 50 -152 55 -8 13 232 219 289 249 11 5 70 20 130 32 231 45 406 94
428 118 31 34 25 77 -12 97 -27 13 -35 13 -93 -4 -80 -25 -222 -61 -239 -61
-7 0 -4 9 9 23 47 49 10 130 -50 111 -13 -4 -75 -50 -138 -103 -63 -53 -160
-134 -215 -180 -55 -45 -174 -151 -264 -234 -90 -84 -167 -153 -172 -155 -12
-5 -11 92 1 144 68 295 300 545 671 723 149 71 282 119 484 171 158 41 220 49
228 27z"/>
<path d="M1875 680 c-3 -6 1 -7 9 -4 18 7 21 14 7 14 -6 0 -13 -4 -16 -10z"/>
</g>
</svg>
